<svg width="208" height="60" viewBox="0 0 208 60" fill="none" xmlns="http://www.w3.org/2000/svg">
<path d="M24.2151 15.2286H16.7128V6.96552C16.7128 0.886909 22.8856 0.412007 25.1648 0.601964H29.6282H35.896C37.9536 0.538642 42.0689 1.7227 42.0689 6.96552V15.2286H35.2313V8.48517C35.2629 7.94696 34.9274 6.90854 33.3319 7.0605H26.1145C25.4814 7.02884 24.2151 7.26944 24.2151 8.48517V15.2286Z" fill="#1E9E58"/>
<g filter="url(#filter0_d_342_83)">
<path d="M24.2132 15.2286H16.5229V6.96552C16.5229 0.886909 22.6942 0.412007 24.9728 0.601964H29.435C25.0297 2.42555 24.9095 5.66749 25.3525 7.15548C24.3082 7.44042 24.2449 8.10527 24.2132 8.48518V15.2286Z" fill="#1E9E58"/>
</g>
<path d="M43.8766 24.4393V16.9369H52.1397C58.2183 16.9369 58.6932 23.1097 58.5033 25.3889V29.8524V36.1201C58.5666 38.1778 57.3825 42.293 52.1397 42.293H43.8766V35.4554H50.6201C51.1583 35.487 52.1967 35.1515 52.0447 33.556V26.3386C52.0764 25.7055 51.8358 24.4393 50.6201 24.4393H43.8766Z" fill="#0B5CC9"/>
<g filter="url(#filter1_d_342_83)">
<path d="M43.8766 24.4372V16.7469H52.1397C58.2183 16.7469 58.6932 22.9182 58.5033 25.1968V29.659C56.6797 25.2537 53.4377 25.1335 51.9497 25.5765C51.6648 24.5322 51 24.4689 50.62 24.4372H43.8766Z" fill="#0B5CC9"/>
</g>
<path d="M59.5463 0.221999C45.2649 -1.06976 43.3405 8.35882 44.1634 13.2346L52.2347 6.96575L45.8726 14.8493C58.3309 15.6851 60.1794 5.44603 59.5463 0.221999Z" fill="#1E9E58"/>
<path d="M15.0387 34.7874V42.2898H6.77557C0.696968 42.2898 0.222066 36.117 0.412022 33.8378L0.412022 29.3743L0.412022 23.1065C0.3487 21.0489 1.53276 16.9337 6.77557 16.9337H15.0387V23.7713H8.29523C7.75702 23.7396 6.7186 24.0752 6.87056 25.6706V32.8881C6.8389 33.5212 7.0795 34.7874 8.29523 34.7874H15.0387Z" fill="#0B5CC9"/>
<g filter="url(#filter2_d_342_83)">
<path d="M15.0387 34.7895V42.4797H6.77557C0.696968 42.4797 0.222066 36.3085 0.412022 34.0299L0.412022 29.5677C2.23561 33.973 5.47755 34.0932 6.96554 33.6502C7.25048 34.6945 7.91533 34.7578 8.29524 34.7895H15.0387Z" fill="#0B5CC9"/>
</g>
<rect x="16.5229" y="16.7469" width="7.6034" height="7.6034" fill="#1E9E58"/>
<rect x="25.6448" y="16.7469" width="7.6034" height="7.6034" fill="#0B5CC9"/>
<rect x="34.7551" y="16.7469" width="7.6034" height="7.6034" fill="#02367B"/>
<rect x="16.5229" y="25.8688" width="7.6034" height="7.6034" fill="#0B5CC9"/>
<rect x="25.6448" y="25.8688" width="7.6034" height="7.6034" fill="#004D25"/>
<rect x="34.7551" y="25.8688" width="7.6034" height="7.6034" fill="#0B5CC9"/>
<rect x="16.5229" y="34.9791" width="7.6034" height="7.6034" fill="#02367B"/>
<rect x="25.6448" y="34.9791" width="7.6034" height="7.6034" fill="#0B5CC9"/>
<rect x="34.7551" y="34.9791" width="7.6034" height="7.6034" fill="#1E9E58"/>
<path d="M34.3808 44.1011H41.8832V52.3642C41.8832 58.4428 35.7103 58.9177 33.4311 58.7277H28.9677H22.6999C20.6423 58.7911 16.5271 57.607 16.5271 52.3642L16.5271 44.1011H23.3647L23.3647 50.8445C23.333 51.3827 23.6686 52.4212 25.264 52.2692H32.4815C33.1146 52.3009 34.3808 52.0603 34.3808 50.8445V44.1011Z" fill="#1E9E58"/>
<g filter="url(#filter3_d_342_83)">
<path d="M34.3828 44.1011H42.0731V52.3642C42.0731 58.4428 35.9019 58.9177 33.6233 58.7277H29.161C33.5663 56.9042 33.6866 53.6622 33.2435 52.1742C34.2879 51.8893 34.3512 51.2244 34.3828 50.8445V44.1011Z" fill="#1E9E58"/>
</g>
<path d="M74.2286 40.0184C72.5115 40.0184 71.0137 39.653 69.735 38.9224C68.4746 38.1917 67.4974 37.1049 66.8033 35.6618C66.1091 34.2188 65.7621 32.4195 65.7621 30.2641C65.7621 28.1087 66.1091 26.2911 66.8033 24.8116C67.4974 23.3137 68.4746 22.1812 69.735 21.414C71.0137 20.6286 72.5115 20.2358 74.2286 20.2358C75.9821 20.2358 77.4343 20.6012 78.5851 21.3318C79.7542 22.0625 80.6857 23.195 81.3799 24.7294L77.7905 26.5925C77.5531 25.7888 77.1512 25.1495 76.5849 24.6746C76.0369 24.1814 75.2515 23.9348 74.2286 23.9348C73.0047 23.9348 72.0183 24.3366 71.2694 25.1404C70.5387 25.9258 70.1734 27.0766 70.1734 28.5927V31.6615C70.1734 33.1593 70.5387 34.3101 71.2694 35.1138C72.0183 35.9176 73.0047 36.3194 74.2286 36.3194C75.2515 36.3194 76.0643 36.0454 76.6671 35.4974C77.2882 34.9312 77.7449 34.2553 78.0371 33.4699L81.4347 35.4426C80.7223 36.8857 79.7816 38.0091 78.6125 38.8128C77.4435 39.6165 75.9821 40.0184 74.2286 40.0184ZM97.0077 39.6896H94.761C94.2678 39.6896 93.802 39.5708 93.3636 39.3334C92.9434 39.0776 92.6055 38.7123 92.3498 38.2374C92.0941 37.7442 91.9662 37.1597 91.9662 36.4838V36.1276L92.843 37.1688H91.8566C91.6374 38.1004 91.1533 38.8128 90.4044 39.306C89.6555 39.7809 88.733 40.0184 87.637 40.0184C86.194 40.0184 85.0889 39.6348 84.3217 38.8676C83.5545 38.0821 83.1709 37.0683 83.1709 35.8262C83.1709 34.8033 83.4175 33.963 83.9107 33.3055C84.4222 32.6479 85.1345 32.1547 86.0479 31.8259C86.9795 31.4971 88.0754 31.3327 89.3358 31.3327H91.61V30.4285C91.61 29.7344 91.4273 29.1864 91.062 28.7845C90.6967 28.3644 90.0848 28.1543 89.2262 28.1543C88.4225 28.1543 87.7832 28.3279 87.3083 28.6749C86.8333 29.022 86.4406 29.4147 86.1301 29.8531L83.7189 27.7159C84.3034 26.8574 85.0432 26.1907 85.9383 25.7158C86.8333 25.2226 88.0298 24.976 89.5276 24.976C91.5552 24.976 93.0804 25.4326 94.1034 26.3459C95.1446 27.241 95.6651 28.5379 95.6651 30.2367V36.5386H97.0077V39.6896ZM91.61 33.6343H89.6372C88.8518 33.6343 88.2581 33.7713 87.8562 34.0452C87.4544 34.3192 87.2535 34.7211 87.2535 35.2508V35.6618C87.2535 36.1733 87.4179 36.5569 87.7466 36.8126C88.0754 37.0683 88.5412 37.1962 89.144 37.1962C89.6007 37.1962 90.0117 37.1323 90.377 37.0044C90.7423 36.8765 91.0346 36.6756 91.2538 36.4016C91.4913 36.1276 91.61 35.7714 91.61 35.333V33.6343ZM103.785 39.6896H99.7295V25.3048H103.785V28.4283H103.922C104.031 27.8986 104.232 27.3963 104.524 26.9213C104.817 26.4464 105.209 26.0628 105.703 25.7706C106.214 25.46 106.844 25.3048 107.593 25.3048H108.306V29.0859H107.292C106.506 29.0859 105.849 29.159 105.319 29.3051C104.808 29.433 104.424 29.6522 104.168 29.9627C103.913 30.2732 103.785 30.7116 103.785 31.2779V39.6896ZM116.674 40.0184C115.213 40.0184 113.961 39.717 112.92 39.1142C111.897 38.4931 111.112 37.6163 110.564 36.4838C110.034 35.3513 109.769 34.0178 109.769 32.4835C109.769 30.9674 110.025 29.6522 110.536 28.5379C111.066 27.4054 111.833 26.5286 112.838 25.9076C113.843 25.2865 115.066 24.976 116.509 24.976C118.099 24.976 119.377 25.323 120.345 26.0172C121.332 26.693 122.053 27.5881 122.51 28.7023C122.967 29.8166 123.195 31.0222 123.195 32.3191V33.5247H113.961V33.7439C113.961 34.6937 114.217 35.4518 114.728 36.018C115.258 36.566 116.062 36.84 117.14 36.84C117.998 36.84 118.683 36.6665 119.195 36.3194C119.724 35.9724 120.218 35.5705 120.674 35.1138L122.702 37.6346C122.062 38.3653 121.222 38.9498 120.181 39.3882C119.158 39.8083 117.989 40.0184 116.674 40.0184ZM116.592 27.9625C116.044 27.9625 115.569 28.0904 115.167 28.3461C114.783 28.5836 114.482 28.9215 114.263 29.3599C114.062 29.7983 113.961 30.3189 113.961 30.9217V31.1409H119.003V30.8943C119.003 30.3098 118.911 29.7983 118.729 29.3599C118.564 28.9215 118.3 28.5836 117.934 28.3461C117.587 28.0904 117.14 27.9625 116.592 27.9625ZM126.278 39.6896V20.5646H130.689L133.238 25.4418L135.375 29.5243H135.43L137.539 25.4418L140.06 20.5646H144.499V39.6896H140.581V30.0997V27.1405H140.498L139.101 29.9353L135.375 36.703L131.731 29.9627L130.278 26.9487H130.196V30.0997V39.6896H126.278ZM161.386 39.6896H159.139C158.646 39.6896 158.18 39.5708 157.742 39.3334C157.322 39.0776 156.984 38.7123 156.728 38.2374C156.473 37.7442 156.345 37.1597 156.345 36.4838V36.1276L157.221 37.1688H156.235C156.016 38.1004 155.532 38.8128 154.783 39.306C154.034 39.7809 153.111 40.0184 152.016 40.0184C150.572 40.0184 149.467 39.6348 148.7 38.8676C147.933 38.0821 147.549 37.0683 147.549 35.8262C147.549 34.8033 147.796 33.963 148.289 33.3055C148.801 32.6479 149.513 32.1547 150.426 31.8259C151.358 31.4971 152.454 31.3327 153.714 31.3327H155.988V30.4285C155.988 29.7344 155.806 29.1864 155.44 28.7845C155.075 28.3644 154.463 28.1543 153.605 28.1543C152.801 28.1543 152.162 28.3279 151.687 28.6749C151.212 29.022 150.819 29.4147 150.509 29.8531L148.097 27.7159C148.682 26.8574 149.422 26.1907 150.317 25.7158C151.212 25.2226 152.408 24.976 153.906 24.976C155.934 24.976 157.459 25.4326 158.482 26.3459C159.523 27.241 160.044 28.5379 160.044 30.2367V36.5386H161.386V39.6896ZM155.988 33.6343H154.016C153.23 33.6343 152.637 33.7713 152.235 34.0452C151.833 34.3192 151.632 34.7211 151.632 35.2508V35.6618C151.632 36.1733 151.796 36.5569 152.125 36.8126C152.454 37.0683 152.92 37.1962 153.522 37.1962C153.979 37.1962 154.39 37.1323 154.755 37.0044C155.121 36.8765 155.413 36.6756 155.632 36.4016C155.87 36.1276 155.988 35.7714 155.988 35.333V33.6343ZM171.4 39.6896H168.989C167.601 39.6896 166.541 39.3334 165.811 38.621C165.08 37.9086 164.715 36.8674 164.715 35.4974V28.4557H162.687V25.3048H163.701C164.249 25.3048 164.623 25.1769 164.824 24.9212C165.025 24.6472 165.126 24.2636 165.126 23.7704V21.414H168.77V25.3048H171.619V28.4557H168.77V36.5386H171.4V39.6896ZM178.491 39.6896H174.436V25.3048H178.491V28.4283H178.628C178.738 27.8986 178.939 27.3963 179.231 26.9213C179.524 26.4464 179.916 26.0628 180.409 25.7706C180.921 25.46 181.551 25.3048 182.3 25.3048H183.012V29.0859H181.999C181.213 29.0859 180.556 29.159 180.026 29.3051C179.514 29.433 179.131 29.6522 178.875 29.9627C178.619 30.2732 178.491 30.7116 178.491 31.2779V39.6896ZM187.542 23.7704C186.72 23.7704 186.117 23.5786 185.733 23.195C185.368 22.8114 185.185 22.3365 185.185 21.7702V21.1674C185.185 20.5829 185.368 20.108 185.733 19.7426C186.117 19.359 186.72 19.1672 187.542 19.1672C188.363 19.1672 188.957 19.359 189.322 19.7426C189.706 20.108 189.898 20.5829 189.898 21.1674V21.7702C189.898 22.3365 189.706 22.8114 189.322 23.195C188.957 23.5786 188.363 23.7704 187.542 23.7704ZM185.514 39.6896V25.3048H189.569V39.6896H185.514ZM191.956 39.6896L196.697 32.3739L192.011 25.3048H196.614L199.3 29.8257H199.409L202.012 25.3048H206.287L201.519 32.5109L206.314 39.6896H201.711L198.943 35.0042H198.834L196.176 39.6896H191.956Z" fill="white"/>
<defs>
<filter id="filter0_d_342_83" x="16.1431" y="2.58237e-05" width="14.4316" height="16.1784" filterUnits="userSpaceOnUse" color-interpolation-filters="sRGB">
<feFlood flood-opacity="0" result="BackgroundImageFix"/>
<feColorMatrix in="SourceAlpha" type="matrix" values="0 0 0 0 0 0 0 0 0 0 0 0 0 0 0 0 0 0 127 0" result="hardAlpha"/>
<feOffset dx="0.379942" dy="0.189971"/>
<feGaussianBlur stdDeviation="0.379885"/>
<feComposite in2="hardAlpha" operator="out"/>
<feColorMatrix type="matrix" values="0 0 0 0 0 0 0 0 0 0.301961 0 0 0 0 0.145098 0 0 0 1 0"/>
<feBlend mode="normal" in2="BackgroundImageFix" result="effect1_dropShadow_342_83"/>
<feBlend mode="normal" in="SourceGraphic" in2="effect1_dropShadow_342_83" result="shape"/>
</filter>
<filter id="filter1_d_342_83" x="42.9268" y="16.1771" width="16.1784" height="14.4316" filterUnits="userSpaceOnUse" color-interpolation-filters="sRGB">
<feFlood flood-opacity="0" result="BackgroundImageFix"/>
<feColorMatrix in="SourceAlpha" type="matrix" values="0 0 0 0 0 0 0 0 0 0 0 0 0 0 0 0 0 0 127 0" result="hardAlpha"/>
<feOffset dx="-0.189971" dy="0.189971"/>
<feGaussianBlur stdDeviation="0.379885"/>
<feComposite in2="hardAlpha" operator="out"/>
<feColorMatrix type="matrix" values="0 0 0 0 0 0 0 0 0 0.109804 0 0 0 0 0.254902 0 0 0 1 0"/>
<feBlend mode="normal" in2="BackgroundImageFix" result="effect1_dropShadow_342_83"/>
<feBlend mode="normal" in="SourceGraphic" in2="effect1_dropShadow_342_83" result="shape"/>
</filter>
<filter id="filter2_d_342_83" x="5.52833e-05" y="28.8079" width="16.1784" height="14.4316" filterUnits="userSpaceOnUse" color-interpolation-filters="sRGB">
<feFlood flood-opacity="0" result="BackgroundImageFix"/>
<feColorMatrix in="SourceAlpha" type="matrix" values="0 0 0 0 0 0 0 0 0 0 0 0 0 0 0 0 0 0 127 0" result="hardAlpha"/>
<feOffset dx="0.379942"/>
<feGaussianBlur stdDeviation="0.379885"/>
<feComposite in2="hardAlpha" operator="out"/>
<feColorMatrix type="matrix" values="0 0 0 0 0 0 0 0 0 0.109804 0 0 0 0 0.254902 0 0 0 1 0"/>
<feBlend mode="normal" in2="BackgroundImageFix" result="effect1_dropShadow_342_83"/>
<feBlend mode="normal" in="SourceGraphic" in2="effect1_dropShadow_342_83" result="shape"/>
</filter>
<filter id="filter3_d_342_83" x="28.0213" y="43.5313" width="14.4316" height="16.1784" filterUnits="userSpaceOnUse" color-interpolation-filters="sRGB">
<feFlood flood-opacity="0" result="BackgroundImageFix"/>
<feColorMatrix in="SourceAlpha" type="matrix" values="0 0 0 0 0 0 0 0 0 0 0 0 0 0 0 0 0 0 127 0" result="hardAlpha"/>
<feOffset dx="-0.379942" dy="0.189971"/>
<feGaussianBlur stdDeviation="0.379885"/>
<feComposite in2="hardAlpha" operator="out"/>
<feColorMatrix type="matrix" values="0 0 0 0 0 0 0 0 0 0.301961 0 0 0 0 0.145098 0 0 0 1 0"/>
<feBlend mode="normal" in2="BackgroundImageFix" result="effect1_dropShadow_342_83"/>
<feBlend mode="normal" in="SourceGraphic" in2="effect1_dropShadow_342_83" result="shape"/>
</filter>
</defs>
</svg>
