<svg preserveAspectRatio="none" overflow="visible" style="display: block;" width="48" height="48" viewBox="0 0 48 48" fill="none" xmlns="http://www.w3.org/2000/svg">
<g id="Frame">
<rect width="48" height="48" rx="10" fill="#E6EEF9"/>
<path id="Vector" d="M24 35C30.0751 35 35 30.0751 35 24C35 17.9249 30.0751 13 24 13C17.9249 13 13 17.9249 13 24C13 30.0751 17.9249 35 24 35ZM24 20.2002C23.4478 20.2002 23.0001 19.7524 23 19.2002C23 18.6479 23.4477 18.2002 24 18.2002H24.0117C24.564 18.2002 25.0117 18.6479 25.0117 19.2002C25.0116 19.7524 24.5639 20.2002 24.0117 20.2002H24ZM24 29.7998C23.4477 29.7998 23 29.3521 23 28.7998V24C23 23.4477 23.4477 23 24 23C24.5523 23 25 23.4477 25 24V28.7998C25 29.3521 24.5523 29.7998 24 29.7998Z" stroke="#0B5CC9" stroke-width="2" stroke-linecap="round"/>
</g>
</svg>
